<svg xmlns="http://www.w3.org/2000/svg" viewBox="0 0 256 256" role="img" aria-labelledby="title desc">
<title>Cabinet Refinishing</title><desc>Blue cabinet with paint roller and sparkle icons</desc>
<defs>
  <linearGradient id="paint" x1="0" y1="0" x2="1" y2="1"><stop offset="0" stop-color="#CFE3F1"/><stop offset="1" stop-color="#5D95CB"/></linearGradient>
  <linearGradient id="side" x1="0" y1="0" x2="1" y2="1"><stop offset="0" stop-color="#EAF4FB"/><stop offset="1" stop-color="#98BEDC"/></linearGradient>
</defs>
<g fill="none" stroke="#325B94" stroke-width="7" stroke-linecap="round" stroke-linejoin="round">
  <path d="M43 65h151v136H43z" fill="#F8FBFD"/>
  <path d="M43 65h151v20H43z" fill="#CFE3F1"/>
  <path d="M43 181h151v20H43z" fill="#98BEDC"/>
  <path d="M43 85h151"/>
  <path d="M118 85v96"/>
  <path d="M67 102h33v14H67z" fill="#EAF4FB"/>
  <path d="M136 102h33v14h-33z" fill="#EAF4FB"/>
  <path d="M63 130h39v48H63z" fill="#FFFFFF" stroke="#98BEDC" stroke-width="4"/>
  <path d="M134 130h39v48h-39z" fill="#FFFFFF" stroke="#98BEDC" stroke-width="4"/>
  <path d="M111 134v32M125 134v32"/>
  <path d="M134 126h60v55h-60z" fill="url(#paint)" opacity=".9" stroke="none"/>
  <path d="M165 140l33-14c7-3 15 0 18 7s0 15-7 18l-33 14z" fill="url(#paint)"/>
  <path d="M176 165l20 38"/>
  <path d="M191 157l20 38"/>
  <path d="M198 203l18-10"/>
  <path d="M25 36c10 4 15 9 19 19 4-10 9-15 19-19-10-4-15-9-19-19-4 10-9 15-19 19z" fill="#EAF4FB"/>
  <path d="M24 93c7 3 11 7 14 14 3-7 7-11 14-14-7-3-11-7-14-14-3 7-7 11-14 14z" fill="#EAF4FB"/>
</g>
</svg>
